<svg width="28" height="28" xmlns="http://www.w3.org/2000/svg" xmlns:xlink="http://www.w3.org/1999/xlink"><defs><path d="M24.353 9.19c0 .264-.007.528-.02.794-.01.183-.397.422-.397.422s.335.384.32.511a17.025 17.025 0 0 1-1.962 6.217c-.036.067-.387.034-.387.034l-.289.52s.056.495-.083.704a15.716 15.716 0 0 1-1.598 2.02c-.05.055-.265-.053-.317 0-.052.055.059.27.006.324a14.22 14.22 0 0 1-5.093 3.316c-.196.073-.528-.37-.73-.305-.234.077-.339.662-.58.727-1.25.338-2.6.522-4.045.523a14.627 14.627 0 0 1-6.89-1.723c-.074-.04-.142-.204-.142-.204s-.179.028-.228 0A14.99 14.99 0 0 1 1 22.503c.349.042.699.067 1.05.074.074.002.239.071.239.071s.133-.07.208-.07a10.45 10.45 0 0 0 6.402-2.376 5.144 5.144 0 0 1-1.19-.163c-.112-.029-.31-.174-.31-.174s-.166.027-.238 0a5.325 5.325 0 0 1-1.897-1.245c-.121-.123.11-.378 0-.514-.103-.127-.548-.132-.64-.269a5.647 5.647 0 0 1-.712-1.492c.8.16 1.624.128 2.41-.095a5.237 5.237 0 0 1-2.347-1.166c-.075-.065-.166-.284-.166-.284s-.169-.03-.225-.088a5.667 5.667 0 0 1-1.543-3.906v-.072c.74.43 1.569.668 2.416.695-2.346-1.63-3.07-4.878-1.651-7.417a15.4 15.4 0 0 0 3.037 2.949c.115.084.316.52.316.52s.271-.11.393-.032A14.828 14.828 0 0 0 11.1 9.415c.083.02.225.116.225.116s.201-.019.29 0a14.58 14.58 0 0 0 2.188.28c-.545-2.447.555-4.97 2.683-6.156a5.3 5.3 0 0 1 .233-.122c.057-.028.14.026.197 0 .055-.025.085-.13.141-.153.075-.03.15-.059.225-.086.203-.072.6-.167.6-.167h.265l.218-.09.174-.019c.1-.009.2-.015.3-.018.06-.002.099.126.16.127.072 0 .168-.127.241-.124a5.247 5.247 0 0 1 3.654 1.744A10.451 10.451 0 0 0 26.282 3.4a5.66 5.66 0 0 1-.761 1.562c-.025.037-.222.057-.222.057s.05.178 0 .24a5.493 5.493 0 0 1-.394.442c-.08.08-.352.166-.352.166s.035.128 0 .158c-.194.164-.4.314-.617.449A10.298 10.298 0 0 0 27 5.597a11.117 11.117 0 0 1-2.662 2.876c.01.238.015.477.015.718zm-2.952-1.473h-.176l-.352.17-.088.424.264.084.352-.17v-.508zm-6.217 7.318l.528.17.352-.17-.352-.34-.44.085-.088.255zm-.528 4.755l-.264.084-.088.255.264.424.264-.424-.176-.34zm-4.928-1.7l-.352-.34-.176-.34-.616.086 1.144.594zm5.98 1.954l-.088.255.088.254.616.255-.616-.764zM8.584 10.03l.264-.085.176-.17-.264-.254-.352.339.176.17zm8.271 7.297l-.087-.085-.44.085.527.51v-.51zm-2.551-5.176l.176.17.352-.17-.088-.255h-.352l-.088.255zm3.607 4.158l-.264.085v.34l.176.169.176-.17-.088-.424zm-3.52 1.527l-.263.085v.34l.44-.085-.176-.34zM7 13.083l.264.255h.352l-.088-.255H7zm9.152 5.94h.176l.264-.085.088-.254-.44.085-.088.254zm.528-3.394l-.088-.255v-.17h-.352l.088.255.352.17zm2.903 2.63l.264.255.088-.255-.176-.17-.176.17zm-10.735.68l.176.169.176-.17-.088-.254-.264.254zm9.063 2.12l-.264-.254-.176.17.176.17.264-.085zM16.768 8.248l.263.254v-.509l-.263.255zm.997 11.295l.264.085.352-.17-.088-.254-.528.34zm.419-14.507l.528.17.352-.17-.352-.34-.44.085-.088.255zm4.663 4.842l-.264.084-.088.255.264.424.264-.424-.176-.34zm-13.12 4.327l-.351-.34-.176-.339-.616.085 1.144.594zm-.087-2.97l-.088.255.088.255.616.254-.616-.764zm10.215-3.908l-.087-.085-.44.085.527.51v-.51zm-5.2 8.642l.177.17.352-.17-.088-.254h-.352l-.088.254zm6.256-9.66l-.264.085v.34l.176.169.176-.17-.088-.424zm-3.52 1.527l-.263.085v.34l.44-.085-.176-.34zm1.76 1.188h.177l.264-.085.088-.254-.44.085-.088.254zm.529-3.394l-.088-.255v-.17h-.352l.088.255.352.17zm2.903 2.63l.264.255.088-.255-.176-.17-.176.17zm-10.968 8.134l.176.17.176-.17-.088-.255-.264.255zm9.296-5.333l-.264-.255-.176.17.176.17.264-.085zm-8.594 2.918v.226l.396.396.283.057-.396-.622-.283-.057zm2.15.113l-.057-.17v-.113h-.226l.057.17.226.113zm2.15-1.923l.113.113v-.226l-.113.113z" id="path-1"/></defs><g id="Symbols" stroke="none" stroke-width="1" fill="none" fill-rule="evenodd"><g id="Social/Twitter"><mask id="mask-2" fill="#fff"><use xlink:href="#path-1"/></mask><use id="Combined-Shape" fill="#F4C100" fill-rule="nonzero" xlink:href="#path-1"/></g></g></svg>