<svg width="28" height="28" xmlns="http://www.w3.org/2000/svg"><g id="Symbols" stroke="none" stroke-width="1" fill="none" fill-rule="evenodd"><g id="Social/Facebook" fill="#F4C100"><path d="M15.789 15.052v3.665l-.288 1.776.288.614v3.413l-.11.068.05.111.06.191V26s-.039-.03-.06-.03c-.021 0-.065.03-.065.03h-3.836l-.047-.03-.095.03h-.139l.023-.272-.023-.061v-.465s.05-.074.05-.116c0-.042-.05-.116-.05-.116v-6.956s.097-.035.097-.227c0-.046.732 0 .732 0l-.292-.323.115-.288-.652-.149v-1.975h-.875l-.11-.069-.247.07H8v-.64l.13-.067-.027-.061H8v-3.499s.051.037.079.037c.027 0 .084-.037.084-.037H9.34l.297.037.34-.037.241.037.057-.037h1.272V7.64c0-.405.026-.79.078-1.154.002-.017.113-.046.113-.046s-.098-.058-.094-.083l.023-.135c.005-.026.05-.086.05-.086s-.025-.045-.02-.07a5.584 5.584 0 0 1 .679-1.79c.01-.015.112.096.112.096l.14-.095s-.159-.149-.14-.177a4.47 4.47 0 0 1 .983-1.059c.114-.088.772-.17.772-.17V2.56l.14-.067C15.097 2.167 15.923 2 16.83 2c1.502 0 2.794.116 3.17.168v2.28c0 .115-.143.387-.143.387s.143.217.143.346v.803h-.752c-.1 0-.148-.057-.277-.057-.051 0-.177.058-.23.058h-.916c-1.706 0-2.036.842-2.036 2.077v2.724h1.78l-.044.081.35-.08.118.036.186-.037h1.678l-.53 4.266h-.122l-.088-.035-.138.035h-3.19zm-3.217-.713l-.176-.17-.088-.169-.308.042.572.297zm.256-1.663l-.352.518.044.127.602.103-.294-.748zm-.74-2.097l.374-.29.058-.289h-.344l-.176.17.088.409zm.418 14.764l-.044-.042-.22.042.264.255v-.255zM15 11.127l.088.085.176-.085L15.22 11h-.176l-.044.127zM17.132 13l-.132.042v.17l.088.085.088-.085-.044-.212zm-2 1l-.132.042v.17l.22-.042-.088-.17zM13.21 4.364l.132-.044.088-.088-.132-.132-.176.176.088.088zm.718 7.68l-.044-.248-.315.182c-.18.082-.226.168-.14.258.087.09.175.12.265.088l.234-.28zM12.3 9.156l.329.22.419-.088-.176-.264h-.176l-.396.132zm2.156 2.156l-.132.044v.176l.088.088.088-.088-.044-.22zm-2.084.401l-.199.066v.265l.33-.066-.131-.265zm-.284 10.673l.132.044.176-.088-.044-.132-.264.176zm6.897-16.978l.132.132h.176l-.044-.132h-.264zm-6.377 18.088l.044.237.22-.237v-.176l-.264-.152v.328zm1.276-12.369l.132-.436-.016-.436-.38.485.044.132.22.255zm1.408 1.197l.132.132.044-.132-.088-.088-.088.088zm-5.368.352l.088.088.088-.088-.044-.132-.132.132zm4.84.848h-.748l.22.518.528-.518zm-.88-6.392l.132.132V7l-.132.132zm-2.86 5.236l-.088.088-.044.132.132-.044v-.176zm1.892 2.244l.132.044v-.176l-.132.132zM12.212 8.1l-.088.088.176.088-.088-.176zm-.924 5.764v-.088l-.132.044.088.088.044-.044zm4.224-4.4l.088.088v-.176l-.088.088zm-.748 2.332l-.044-.132-.088.088.132.044zm-2.244-3.3l.132.044v-.088l-.132.044z" id="Combined-Shape"/></g></g></svg>