<svg width="28" height="28" xmlns="http://www.w3.org/2000/svg"><g id="Symbols" stroke="none" stroke-width="1" fill="none" fill-rule="evenodd"><g id="Social/YoutTube" fill="#F4C100" fill-rule="nonzero"><path d="M2.157 20.166l.013.004-.003-.007.37-.104-.87-.599-.275-.65-1.112.65S0 17.044 0 14.628v-.574c0-.08.197-.147.197-.227 0-.073-.197-.158-.197-.232v-.284c0-.051.232-.023.28-.105.05-.085-.083-.28-.083-.332 0-.212-.197-.512-.197-.512C0 9.946.28 7.53.28 7.53s.273-2.057 1.112-2.964c1.066-1.19 2.259-1.195 2.806-1.264a64.79 64.79 0 0 1 1.147-.077c.063-.004-.006.187.058.183.12-.006.373-.207.495-.214l.193-.01c.075-.003.224.122.3.118.086-.004.098-.137.185-.14.67-.031 1.35-.056 2.015-.076.38-.011 1.72.494 1.72.494s.129-.54.473-.546C12.634 3 14 3 14.006 3l1.86.023c.077.001.156.137.232.138.075.001.147-.133.222-.132l1.746.022.353.251h.398l.447-.22s3.154.114 4.538.22c.547.07 1.74.075 2.805 1.264.085.092.163.195.237.306.04.06 0 .215 0 .215s.184.101.218.169c.487.986.658 2.274.658 2.274s.28 2.416.28 4.832v1.365c0 .076-.114.14-.114.216 0 .088.114.189.114.277v.408c0 2.416-.28 4.832-.28 4.832s-.092.692-.333 1.45c-.047.149-.137.125-.197.275-.043.11-.053.393-.104.498-.134.28-.292.539-.479.74-1.065 1.19-2.258 1.196-2.805 1.265-.894.07-1.89.123-2.895.165-.36.015-1.087-.629-1.087-.629s-.911.698-1.354.71c-.867.022-1.68.037-2.368.047-.132.002-.277-.109-.4-.107-.113.001-.205.115-.309.116C14.535 24 14 24 14 24l-3.904-.064-.562-.062-.272-.327-.282.153-1.21.174s-2.574-.101-3.29-.174c-.623-.125-2.022-.087-3.088-1.277-.265-.286-.635-1.103-.635-1.103l.635-.135v-.804l.765-.215zm8.952-2.793l2.131-1.178.216.074.172-.288 2.699-1.492.071.084.065-.055-.027-.09.337-.185h.094l.039-.074 1.767-.976-1.16-.646-.768-.48-.05.025-1.587-.968-.617-.7-1.17-.209-1.977-1.1-.146-.131h-.09v.185l-.043.154.043.097v3.128l-.215.93.216.292v3.603zm-4.713-4.26L6.283 13 6 13.057l.283.17.113-.114zM3.113 10.06L3 10.173l.057.17.17-.056-.114-.227zm3.546 4.088l-.227-.227-.056.17-.453.453-.056.17.113.226.735-.51.736-.056.113-.226-.057-.17-.283-.057-.565.227zm.907-5.108l-.34.113-.226.34.453.34.113.339.679-.453-.453-.226-.226-.453zm12.32 11.261l.17.057h.114l.17-1.075-.17-.283-.283.283.17.17-.283.509.113.34zm-.169 1.152v.339l.792.34v-.227l-.17-.056.057-.17.113.113.226-.226-.339-.113h-.679zM4.68 16.806l.17.057.396.057.17.282.225-.339-.056-.17-.566-.226-.34.34zm4.13-6.392l.056.17v.113l.34.113.169-.056.17-.283-.113-.226h-.34l-.283.17zm4.21-2.509l.112-.34-.226-.452L12.34 7l-.34.566.453.452.565-.113zm-6.003 9.162l.114.34.452.452.792-.113.113-.566-.34.113-1.13-.226zm-4.111 0l-.34.113-.226.226v.68l.226.225.566-.791-.226-.453zm1.887 3.178l.226-.227.113-.34L4.453 19 4 19.453h.226l.566.792zM8.792 5h-.226l-.453.226L8 5.792l.34.113.452-.226V5zM8 13.453l.679.226.452-.226L8.68 13l-.566.113-.113.34zM21.453 22l-.34.113-.113.34.34.565.339-.565-.226-.453zM3.47 15.905l-.453-.452L2.792 15 2 15.113l1.47.792zm-.905-3.228l-.113.34.113.339.792.34-.792-1.019zm-.34-4.998l.34-.113.226-.227L2.452 7 2 7.453l.226.226zm6.47 4.093l.112.113.227-.113-.057-.17h-.226l-.057.17zm.056 3.79l-.17.057v.226l.283-.057-.113-.226zM19 22.226l.17.057.226-.113-.057-.17-.339.226zM4 12.394l.17.17h.226l-.057-.17H4zm6.223 1.697l-.057-.17v-.113H9.94l.056.17.227.113zm-3.188 5.022l.17.17.056-.17L7.148 19l-.113.113zm-1.847-2.816l.113.113.113-.113-.056-.17-.17.17zm5.826 1.415l-.17-.17-.112.113.113.113.17-.056zM10.28 9.17l.17.17V9l-.17.17zM6.602 15.9l-.113.113-.057.17.17-.056V15.9zm2.433 2.885l.17.057v-.226l-.17.17zm-.905-8.372l-.114.113.227.113-.113-.226zm-1.188 7.41v-.112l-.17.056.113.113.057-.056zM5 10.115l.113.112V10L5 10.113zm3.525.81l.17.056v-.113l-.17.056zm15.362 7.68l-.019.019-.038-.076-.113.114.019.094-.075.075.17.17.112-.113-.014-.07.014-.043-.037-.076-.02-.094zM23.83 23l.113-.113.17-.736.396-.282-.226-.227-.34.227-.226.905.113.226zm2.453-2.679l-.17-.056H26l-.34.339.057.283.51-.283.056-.283zM24 20.717h-.113l-.283.057.113.113h.226l.057-.17zM17.214 9.644l.113.113.283-.056-.283-.17-.113.113zm-1.774.679l.113-.113-.057-.17-.17.057.114.226zm9.354-1.588l.17.057.226.226.056-.17.453-.452.056-.17L25.642 8l-.735.51-.735.056-.114.226.057.17.283.056.396-.283zm-1.115 5.396l.34-.113.226-.34-.453-.339-.113-.339-.679.453.453.226.226.452zm2.642-7.937l-.17-.057-.396-.057-.17-.282-.225.339.056.17.566.226.34-.34zm-4.13 6.392l-.056-.17v-.113l-.34-.113-.169.056-.17.283.113.226h.34l.283-.17zm.736-3.564v-.226l-.396-.396-.283-.057.396.622.283.057zm1.13 2.035l-.057.17.113.226.283.056.17-.283-.227-.226-.282.057zm-3.393-6.221l-.056-.17-.227-.226-.395.056-.057.283.17-.056.565.113zm3.904 1.075l.17-.057.112-.113v-.34l-.113-.113-.283.396.114.227zM23.21 4.666l-.113.113-.057.17.34.34.226-.227h-.113l-.283-.396zm-2.32 8.995h.114l.226-.114.057-.282-.17-.057-.226.113v.34zm4.356-6.393l.227.227.113.226.396-.057-.736-.396zm.736 5.374l-.17.057-.113.113.17.17.226-.227-.113-.113zm-5.318-4.865l.057.057.283-.057-.34-.339v.34zm1.64 3.451l-.112-.113-.227.113.057.17h.226l.057-.17zm-2.318-2.772l.17-.056v-.227l-.114-.113-.113.113.057.283zm2.262-1.018l.17-.057v-.226l-.283.057.113.226zM27 10.606l-.17-.17h-.226l.057.17H27zm-5.883-3.96h-.113l-.17.057-.057.17.283-.057.057-.17zm-.34 2.263l.057.17v.113h.226l-.056-.17-.227-.113zm-1.866-1.754l-.17-.17-.057.17.114.113.113-.113zm6.901-.452L25.7 6.59l-.113.113.056.17.17-.17zm-5.826-1.415l.17.17.112-.113-.113-.113-.17.056zm.735 8.542l-.17-.17V14l.17-.17zm3.677-6.73l.113-.113.057-.17-.17.056V7.1zm-2.433-2.885l-.17-.057v.226l.17-.17zm.905 8.372l.114-.113-.227-.113.113.226zm1.188-7.41v.112l.17-.056-.113-.113-.057.056zm-5.43 5.656l-.113-.113v.226l.113-.113zm.962-2.998l.056.17.113-.113-.17-.057zm2.885 4.243l-.17-.057v.113l.17-.056z" id="Combined-Shape"/></g></g></svg>