<svg width="28" height="28" xmlns="http://www.w3.org/2000/svg"><g id="Symbols" stroke="none" stroke-width="1" fill="none" fill-rule="evenodd"><g id="Social/Instagram" fill="#F4C100" fill-rule="nonzero"><path d="M21.846 7.594a1.44 1.44 0 1 1-2.88 0 1.44 1.44 0 0 1 2.88 0zm-1.733-.085l.17-.056.056-.17L20.17 7l-.17.283.113.226zM14 18a4 4 0 1 1 0-8 4 4 0 0 1 0 8zm5.113-3.3l.113.34-.283.508.17.17-.283.283-.17-.283.17-1.075h.113l.17.057zm.17-1.152h-.679l-.34-.113.227-.226.113.113.057-.17-.17-.056v-.226l.792.339v.34zm-.17-1.83l-.34.226-.056-.17.226-.112.17.056zm-9.774 1.34v.339L9 13.056 9.283 13l.056.057zM9.17 11l.057.283-.113.113L9 11.283v-.226L9.17 11zM9 14.226l.057-.17.282-.056-.056.17-.17.056H9zm5-6.388a6.14 6.14 0 0 0-4.126 1.585c-.202.182-.13.567-.305.774-.164.193-.58.206-.719.418A6.133 6.133 0 0 0 7.838 14a6.154 6.154 0 0 0 2.592 5.024c.186.131.414-.175.414-.175s.587.759.808.85a6.162 6.162 0 0 0 8.329-7.19c-.066-.263-.46-.342-.557-.59-.091-.23.116-.631 0-.847A6.161 6.161 0 0 0 14 7.838zm0-3.676c3.204 0 3.584.012 4.849.07 1.17.054 1.805.249 2.228.413.56.218.96.478 1.38.898.42.42.68.82.898 1.38.164.423.36 1.058.413 2.228.058 1.266.07 1.645.07 4.85 0 3.204-.012 3.583-.07 4.848-.053 1.17-.249 1.806-.413 2.229-.218.56-.478.96-.898 1.38-.42.42-.82.68-1.38.897-.423.164-1.058.36-2.228.413-.593.027-.992.045-1.578.055-.136.002-.711.39-.711.39s-.245-.38-.567-.378c-.517.002-1.16.003-1.993.003-3.204 0-3.584-.012-4.85-.07-1.17-.053-1.805-.248-2.227-.413a3.718 3.718 0 0 1-1.38-.898c-.42-.42-.68-.82-.898-1.38-.164-.422-.36-1.058-.413-2.228-.058-1.265-.07-1.645-.07-4.849l.001-1.56c0-.165-.428-.282-.428-.282l-.21-.747s.648-.412.652-.647c.01-.605.027-1.008.055-1.613.053-1.17.249-1.805.413-2.228.218-.56.478-.96.898-1.38.42-.42.82-.68 1.38-.898.422-.164 1.058-.36 2.228-.413 1.265-.058 1.645-.07 4.849-.07zm10.962 13.384l-.09-.03-.083.525-.002.012-.048.305h-.113l-.17-.057-.113-.34.017-.03-.36-.103.536-.214.09-.161-.17-.17.283-.283.17.283-.028.176.08-.027v.114zm-21.32-.051v.567c-.326.066-.522.066-.59 0-.07-.066-.07-.255 0-.567L3.32 17l.32.495zm.16 1.256v.499c-.325.365-.522.515-.59.45-.069-.067-.14-.256-.212-.568h.481l.32-.38zM25.396 8.51L25 8l.396.17.057.17-.057.17zM7.566 3.113l-.057.17-.283.056L7 3.113 7.226 3l.34.113zM14 2c-3.259 0-3.668.014-4.948.072-1.277.058-2.15.261-2.912.558a5.88 5.88 0 0 0-2.126 1.384A5.88 5.88 0 0 0 2.63 6.14c-.297.763-.5 1.635-.558 2.912C2.014 10.332 2 10.742 2 14c0 3.259.014 3.668.072 4.948.058 1.277.261 2.15.558 2.912a5.88 5.88 0 0 0 1.384 2.126A5.883 5.883 0 0 0 6.14 25.37c.763.297 1.635.5 2.912.558.736.033 1.184.052 2.051.062.388.005 1.388-.365 1.388-.365s.495.374.72.375H14c3.259 0 3.668-.014 4.948-.072 1.277-.059 2.15-.261 2.912-.558a5.883 5.883 0 0 0 2.126-1.384 5.883 5.883 0 0 0 1.384-2.126c.297-.763.5-1.635.558-2.912.052-1.139.068-1.588.071-3.965 0-.296-.629-.983-.629-.983l.191-.392-.191-.424s.629-.478.628-.696c-.004-1.923-.022-2.387-.07-3.436-.059-1.277-.261-2.15-.558-2.912a5.883 5.883 0 0 0-1.384-2.126A5.883 5.883 0 0 0 21.86 2.63c-.763-.297-1.635-.5-2.912-.558-.711-.032-1.963-.061-1.963-.061L15.3 2.63v-.629L14 2z" id="Instagram"/></g></g></svg>