<svg width="24" height="28" xmlns="http://www.w3.org/2000/svg"><g id="The-Boss-Hoss" stroke="none" stroke-width="1" fill="none" fill-rule="evenodd"><g id="TBH-BIB-Rough" transform="translate(-1365 -6710)" fill="#FEFEFE"><g id="To-Top" transform="translate(1365 6710)"><g id="Pik/white"><path d="M7.713 9.858c.113-.475-.136-.606-.584-.736.02.495.199.678.584.736M2.53 16.694c-.058.69-.058.69.58.56l-.58-.56m4.02-1.42c-.032.042-.007.183.038.218.261.216.49.184.697-.184-.29-.269-.52-.315-.735-.034m3.686-10.918c.067.01.246-.19.229-.252-.036-.133-.16-.315-.268-.33-.098-.016-.225.16-.402.304.194.13.31.256.441.278m-5.38 13.763c.021.748.029.755.869.849a401.77 401.77 0 0 0-.87-.849m6.121 5.329c-.075-.373-.132-.642-.574-.701-.12.556.15.638.574.7m-6.445-4.142c-.014-.732-.097-.808-.72-.644.113.369.282.637.72.644m1.192-6.983c.066.011.24-.182.233-.271-.026-.313-.199-.493-.575-.417-.08.348-.052.624.342.688m6.515 12.194c-.8.411-.8.411-.534 1.16.159-.342.316-.687.534-1.16m8.303-13.247c.064.44.46.472.747.638-.069-.758-.069-.758-.747-.638m-1.956 6.361c.037.49.16.814.651.867-.04-.4-.114-.772-.651-.867M5.189 7.714c.753-.046.753-.046.85-.718-.51-.02-.71.281-.85.718m7.52 2.186c-.08-.018-.272.121-.284.208-.064.427.188.576.628.588.165-.45.053-.711-.344-.796m-8.812 1.793l.711-1.118c-.725-.052-.783.038-.71 1.118m9.724 1.983c.037-.055-.023-.257-.082-.28-.103-.04-.31-.04-.348.022-.135.218-.218.468-.32.707l.255.156c.168-.199.351-.388.495-.605m-.6 9.95c-.059.797-.05.814.679 1.064.056-.613-.182-.91-.68-1.064M6.43 13.124c.394.133.626.418.856.74.078.108.337.21.42.16.135-.084.268-.295.266-.452-.003-.155-.178-.448-.266-.444-.445.02-.716-.167-.921-.545-.04-.075-.249-.094-.366-.071-.077.015-.133.15-.215.252.084.14.13.326.226.36m2.282 1.986c.427.39.856.785 1.316 1.133.108.082.344-.008.522-.02-.016-.155.011-.333-.055-.462-.098-.193-.23-.445-.406-.51-.368-.135-.587-.338-.726-.708-.044-.116-.33-.23-.469-.195-.136.033-.224.258-.316.376.06.181.063.32.134.386m-6.01-.648c-.27.235-.64.406-.715.665-.087.304.083.685.144 1.05.595-.047.616-.467.728-.825.088-.282.215-.552.316-.831.088-.246.289-.553.21-.728-.08-.178-.44-.228-.816-.396l.133 1.065m3.384 1.703c.17.235.315.47.494.676.183.212.454.324.632.062.075-.112-.018-.464-.146-.57a14.163 14.163 0 0 0-1.528-1.12c-.383-.244-.648-.551-.947-1.104l1.003.27c-.17-.463-.17-.463-1.04-.747-.19.26-.406.538-.599.832-.179.271-.37.545-.483.844-.12.323-.156.678-.248 1.112l.87.062c.149-.336-.122-.788.385-.879.403-.073.663.12.977.772l.63-.21m5.808-14.539c.17.287.35.57.517.86.164.282.366.556.462.862.225.71.599 1.256 1.32 1.522.23.087.48.196.65.367 1.268 1.284 2.825 2.19 4.215 3.312.563.455 1.331.621 1.691 1.374.185.386.563.679.855 1.013.257.293.514.585.773.876.091.104.233.181.28.3.528 1.31 1.054 2.622.583 4.079-.57 1.771-1.167 3.461-3.09 4.313-.82.364-1.588.756-2.488.849-1.365.14-2.726.307-3.933-.622-.145-.112-.374-.112-.564-.165l-.144.161c.163.373.31.755.493 1.118.254.499.59.963.793 1.481.432 1.106.935 2.157 1.742 3.04.107.117.177.269.263.403-.257.407-.564.458-.96.308-.306-.116-.634-.237-.955-.248-1.03-.036-2.063-.002-3.093-.037-.417-.013-.877.062-1.29-.295l.887-.557c-.422-.465-.006-.793.169-1.143.179-.356.475-.653.802-1.085l-.789-.016c-.08.286-.145.513-.246.866l-.964-.744c-.662.77-.924 2.077-.544 2.908-.21.08-.45.272-.61.218-.775-.257-.952-.852-.52-1.57.772-1.282 1.268-2.686 1.756-4.094.18-.52.128-1.005-.245-1.419-.07-.077-.253-.097-.37-.074-.07.015-.147.158-.162.253-.127.797-.358 1.004-1.15 1.01a2.801 2.801 0 0 0-.493.041c-2.28.44-4.161-.358-5.725-1.988-.516-.54-.883-1.228-1.296-1.865-.133-.205-.196-.458-.29-.69-.47-1.153-.088-2.278.147-3.39.223-1.059.849-1.936 1.386-2.86A10.161 10.161 0 0 1 5.29 6.68a11.07 11.07 0 0 0 2.15-1.696c.29-.296.644-.536.994-.76.901-.573 1.477-1.326 1.453-2.458-.004-.18.044-.358.066-.455.22-1.697.788-1.664 1.54-.374.104.18.25.436.4.69" id="Fill-1"/></g></g></g></g></svg>